#!OML:ASF F:\VICON\USERDATA\INSTALL\Justin_Nancy\Justin_Nancy.ASF
:FULLY-SPECIFIED
:DEGREES
164
root 0.277944 17.0105 -29.891 9.19119 -1.74974 -3.08181
lowerback 7.9911 2.07569 0.602481
upperback -0.279941 2.95743 2.76699
thorax -4.8919 1.48266 2.17972
lowerneck -7.16039 -3.49305 -10.8018
upperneck 11.4665 -4.41049 7.98993
head 5.03018 -2.14576 3.97248
rclavicle -1.21259e-014 -9.54166e-015
rhumerus -32.1802 -5.3184 -83.1687
rradius 32.9231
rwrist 6.55076
rhand -14.1288 5.93963
rfingers 7.12502
rthumb 12.0049 -23.6961
lclavicle -1.21259e-014 -9.54166e-015
lhumerus -44.5742 19.0063 74.5822
lradius 28.6435
lwrist -11.3141
lhand -12.3551 23.7845
lfingers 7.12502
lthumb 13.7148 53.3126
rfemur 16.7986 6.79728 29.6851
rtibia 5.40694e-014
rfoot -9.61125 -11.4729
rtoes -6.13289
lfemur -42.8536 -3.32683 -10.7011
ltibia 23.3738
lfoot -7.50984 5.3525
ltoes -5.90356
165
root 0.297271 17.0189 -29.7412 9.04986 -1.77987 -3.07651
lowerback 7.95444 2.08442 0.451669
upperback -0.157605 2.95139 2.78889
thorax -4.75209 1.48318 2.29113
lowerneck -7.45764 -3.5568 -11.0068
upperneck 11.8736 -4.47925 8.14653
head 5.22098 -2.17527 4.04991
rclavicle -1.65985e-014 -7.95139e-016
rhumerus -32.3704 -6.2115 -82.6479
rradius 31.0518
rwrist 10.3746
rhand -17.9083 14.0447
rfingers 7.12502
rthumb 8.35882 -15.7699
lclavicle -1.65985e-014 -7.95139e-016
lhumerus -44.7313 19.6522 74.1318
lradius 28.1297
lwrist -11.5262
lhand -12.0541 23.9101
lfingers 7.12502
lthumb 14.0048 53.4184
rfemur 17.4224 6.63274 29.6084
rtibia 1.27222e-014
rfoot -9.1956 -11.1096
rtoes -5.09554
lfemur -42.4342 -3.22392 -10.9466
ltibia 23.8343
lfoot -7.16423 4.6909
ltoes -5.21069
166
root 0.326079 17.0205 -29.5806 8.82574 -2.03685 -3.05975
lowerback 7.91097 2.11514 0.406587
upperback -0.0103239 2.97948 2.72548
thorax -4.57374 1.49643 2.25085
lowerneck -7.73586 -3.39507 -10.9308
upperneck 12.0656 -4.26244 8.24533
head 5.30578 -2.05536 4.0842
rclavicle -1.39149e-015 -3.97569e-015
rhumerus -32.3466 -5.10449 -83.438
rradius 32.8959
rwrist 4.68524
rhand -15.0092 7.7089
rfingers 7.12502
rthumb 11.1559 -21.9745
lclavicle -1.39149e-015 -3.97569e-015
lhumerus -45.0161 20.0748 73.7416
lradius 27.9253
lwrist -11.4627
lhand -11.926 23.7079
lfingers 7.12502
lthumb 14.1283 53.2076
rfemur 18.2578 6.69151 29.4195
rtibia 1.27222e-014
rfoot -9.09701 -10.6685
rtoes -5.05086
lfemur -41.8507 -3.33884 -11.0788
ltibia 24.3466
lfoot -7.10221 4.54959
ltoes -5.50765
167
root 0.355424 17.0217 -29.4308 8.87205 -2.10362 -3.07494
lowerback 7.81532 2.18938 0.43312
upperback -0.00136132 3.07591 2.66782
thorax -4.50964 1.54287 2.16799
lowerneck -7.97056 -3.37195 -10.8288
upperneck 12.1357 -4.23175 8.30563
head 5.36314 -2.02736 4.08723
rclavicle -1.78906e-015 4.77083e-015
rhumerus -32.3905 -5.78235 -83.14
rradius 32.8887
rwrist 6.22181
rhand -14.3127 7.51769
rfingers 7.12502
rthumb 11.8276 -22.1283
lclavicle -1.78906e-015 4.77083e-015
lhumerus -45.0241 20.2743 73.549
lradius 27.4032
lwrist -11.7812
lhand -12.0581 23.6713
lfingers 7.12502
lthumb 14.001 53.1798
rfemur 18.7288 6.60983 29.2849
rtibia -9.54166e-015
rfoot -8.67063 -10.3035
rtoes -8.29378
lfemur -41.6926 -3.48057 -11.1994
ltibia 24.9559
lfoot -6.9391 4.09074
ltoes -6.10826
168
root 0.384909 17.033 -29.2763 8.84527 -1.96216 -3.03706
lowerback 7.8588 2.25173 0.483843
upperback -0.0323261 3.16016 2.55782
thorax -4.56027 1.58215 2.01297
lowerneck -8.02601 -3.66172 -11.0065
upperneck 12.1302 -4.63349 8.57833
head 5.42151 -2.21263 4.17157
rclavicle 2.42517e-014 1.55052e-014
rhumerus -32.5964 -6.39317 -82.9893
rradius 33.0279
rwrist 6.69295
rhand -14.1279 6.68812
rfingers 7.12502
rthumb 12.0058 -22.9475
lclavicle 2.42517e-014 1.55052e-014
lhumerus -44.927 20.476 73.2906
lradius 26.6676
lwrist -12.4592
lhand -12.3271 24.7656
lfingers 7.12502
lthumb 13.7418 54.2918
rfemur 19.2461 6.30652 29.1348
rtibia -3.81667e-014
rfoot -8.03811 -9.86402
rtoes -10.8569
lfemur -41.47 -3.49562 -11.545
ltibia 25.5377
lfoot -6.28359 2.95804
ltoes -4.86312
169
root 0.415677 17.0573 -29.114 8.78619 -1.95187 -3.07375
lowerback 7.84306 2.25981 0.579579
upperback -0.0657308 3.17782 2.50523
thorax -4.57849 1.58816 1.90251
lowerneck -7.96044 -3.97311 -11.3451
upperneck 12.2734 -5.04944 8.74792
head 5.51083 -2.42212 4.24975
rclavicle -2.05742e-014 7.15625e-015
rhumerus -32.8802 -6.50347 -83.0097
rradius 33.3189
rwrist 6.44783
rhand -13.9178 5.72926
rfingers 7.12502
rthumb 12.2084 -23.8945
lclavicle -2.05742e-014 7.15625e-015
lhumerus -45.0937 20.7723 72.9794
lradius 26.1214
lwrist -12.8363
lhand -12.5703 25.1184
lfingers 7.12502
lthumb 13.5074 54.6603
rfemur 19.8255 6.14609 29.0086
rtibia 4.13472e-014
rfoot -7.23143 -9.40553
rtoes -11.3179
lfemur -41.1621 -3.60343 -11.7141
ltibia 26.0225
lfoot -5.27634 2.05903
ltoes -4.57559
170
root 0.449458 17.083 -28.9555 8.96057 -2.15076 -2.94599
lowerback 7.61235 2.24942 0.461861
upperback -0.104342 3.14574 2.41291
thorax -4.48883 1.57439 1.8844
lowerneck -8.34827 -3.90078 -11.3359
upperneck 12.6335 -4.91851 8.67458
head 5.67351 -2.35586 4.23304
rclavicle -2.28602e-015 -1.07344e-014
rhumerus -33.0477 -6.69657 -82.9189
rradius 33.0106
rwrist 6.22375
rhand -14.2477 8.1316
rfingers 7.12502
rthumb 11.8902 -21.5108
lclavicle -2.28602e-015 -1.07344e-014
lhumerus -45.3472 21.5673 72.3188
lradius 25.5719
lwrist -13.5098
lhand -12.5186 24.8635
lfingers 7.12502
lthumb 13.5572 54.4021
rfemur 20.0519 6.20989 28.6281
rtibia -3.49861e-014
rfoot -6.08557 -9.03984
rtoes -12.2853
lfemur -41.1373 -3.45614 -12.1182
ltibia 26.4182
lfoot -4.27889 1.37875
ltoes -6.14335
171
root 0.487735 17.1129 -28.7975 9.23266 -2.32931 -2.67157
lowerback 7.38061 2.2643 0.279654
upperback -0.152479 3.1397 2.25341
thorax -4.40886 1.57413 1.8296
lowerneck -9.05427 -3.64933 -10.9898
upperneck 12.7408 -4.52115 8.42867
head 5.77286 -2.14766 4.12272
rclavicle -5.96354e-016 -7.95139e-016
rhumerus -33.1351 -6.73778 -82.9452
rradius 32.5146
rwrist 5.26858
rhand -15.2349 10.8306
rfingers 7.12502
rthumb 10.9382 -18.8645
lclavicle -5.96354e-016 -7.95139e-016
lhumerus -45.432 22.3813 71.6972
lradius 24.9013
lwrist -14.2735
lhand -12.2912 24.6669
lfingers 7.12502
lthumb 13.7763 54.1908
rfemur 20.1035 6.25239 28.0552
rtibia -9.54166e-015
rfoot -4.86864 -8.57924
rtoes -13.1537
lfemur -41.1944 -3.49106 -12.5951
ltibia 26.7511
lfoot -3.79882 1.16962
ltoes -6.36497
172
root 0.520695 17.1335 -28.632 9.0772 -2.0824 -2.29113
lowerback 7.62562 2.38656 0.355216
upperback 0.0989833 3.28641 1.81597
thorax -4.25872 1.63875 1.31302
lowerneck -10.3602 -4.20896 -10.6901
upperneck 13.3403 -5.23667 8.48658
head 6.25317 -2.44875 4.01578
rclavicle 5.36719e-015 1.19271e-015
rhumerus -32.9471 -8.13197 -82.8853
rradius 32.7088
rwrist 6.38484
rhand -14.7748 10.139
rfingers 7.12502
rthumb 11.3819 -19.5321
lclavicle 5.36719e-015 1.19271e-015
lhumerus -44.5165 22.2625 71.5557
lradius 24.1933
lwrist -14.7649
lhand -12.2141 24.5252
lfingers 7.12502
lthumb 13.8507 54.044
rfemur 20.7361 5.80199 27.5027
rtibia 2.8625e-014
rfoot -3.81253 -8.0878
rtoes -13.484
lfemur -40.7745 -3.80133 -13.2009
ltibia 26.9734
lfoot -3.59563 0.509898
ltoes -5.65793
173
root 0.550227 17.1576 -28.4557 8.82484 -2.13512 -2.09458
lowerback 7.7889 2.63538 0.481954
upperback 0.507951 3.60475 1.42891
thorax -3.89919 1.78973 0.809665
lowerneck -12.0341 -4.62966 -10.232
upperneck 13.7421 -5.75669 8.52582
head 6.71128 -2.63483 3.88085
rclavicle 1.40143e-014 5.56597e-015
rhumerus -32.5005 -9.34435 -83.0463
rradius 32.6775
rwrist 5.16582
rhand -15.1395 10.8293
rfingers 7.12502
rthumb 11.0302 -18.8609
lclavicle 1.40143e-014 5.56597e-015
lhumerus -43.2981 22.1108 71.5717
lradius 23.4381
lwrist -15.2285
lhand -12.3917 24.8881
lfingers 7.12502
lthumb 13.6795 54.4186
rfemur 19.2432 5.63111 27.0773
rtibia 4.43293
rfoot -4.7086 -7.93632
rtoes -12.6201
lfemur -40.103 -3.96253 -13.5626
ltibia 27.1675
lfoot -3.30538 -0.283196
ltoes -5.75808
174
root 0.575469 17.183 -28.2874 8.79315 -2.13887 -1.90371
lowerback 7.92749 2.86892 0.541193
upperback 0.760395 3.90105 1.03941
thorax -3.68708 1.93279 0.342953
lowerneck -13.5294 -5.01164 -9.74443
upperneck 14.0612 -6.26831 8.59847
head 7.11142 -2.81234 3.74867
rclavicle -1.98785e-016 3.57812e-015
rhumerus -32.0399 -10.6013 -83.1576
rradius 32.8187
rwrist 5.44398
rhand -14.8297 10.1603
rfingers 7.12502
rthumb 11.329 -19.5138
lclavicle -1.98785e-016 3.57812e-015
lhumerus -42.2085 22.1665 71.3607
lradius 22.6396
lwrist -16.0444
lhand -12.5369 24.2763
lfingers 7.12502
lthumb 13.5395 53.8161
rfemur 18.1136 5.43434 26.7011
rtibia 7.45065
rfoot -4.58479 -7.70658
rtoes -13.7785
lfemur -39.6891 -3.873 -14.0121
ltibia 27.3967
lfoot -2.91427 -1.10472
ltoes -6.85674
175
root 0.606153 17.2038 -28.1166 8.6845 -2.01568 -1.56573
lowerback 8.05622 2.98334 0.462655
upperback 1.00194 4.03002 0.698063
thorax -3.48959 1.99633 0.0220979
lowerneck -14.8978 -5.32365 -9.40159
upperneck 14.575 -6.68497 8.61871
head 7.5469 -2.95507 3.63198
rclavicle 1.68967e-014 2.38542e-015
rhumerus -31.8023 -11.5771 -83.1806
rradius 32.9208
rwrist 6.19703
rhand -14.634 9.7453
rfingers 7.12502
rthumb 11.5177 -19.9183
lclavicle 1.68967e-014 2.38542e-015
lhumerus -41.4255 21.9999 71.3716
lradius 22.2595
lwrist -16.2218
lhand -12.175 24.1188
lfingers 7.12502
lthumb 13.8884 53.6351
rfemur 17.249 5.09692 26.1374
rtibia 9.94478
rfoot -4.10181 -7.29859
rtoes -14.5952
lfemur -39.1712 -3.94108 -14.6014
ltibia 27.6529
lfoot -2.49569 -1.55736
ltoes -6.67304
176
root 0.643817 17.2205 -27.9362 8.58373 -2.05702 -1.45648
lowerback 7.91771 3.08265 0.550721
upperback 1.24346 4.15823 0.50875
thorax -3.14185 2.06023 -0.218415
lowerneck -15.8496 -5.53131 -9.3631
upperneck 14.8858 -6.94072 8.74483
head 7.8439 -3.03731 3.6229
rclavicle 2.5345e-014 2.38542e-015
rhumerus -31.8708 -12.0165 -83.2027
rradius 33.254
rwrist 5.97799
rhand -14.416 9.06088
rfingers 7.12502
rthumb 11.7279 -20.5908
lclavicle 2.5345e-014 2.38542e-015
lhumerus -40.969 21.6404 71.6051
lradius 22.208
lwrist -15.9085
lhand -11.649 25.6031
lfingers 7.12502
lthumb 14.3953 55.0839
rfemur 16.3813 4.95832 25.7448
rtibia 12.5119
rfoot -3.6134 -6.81835
rtoes -14.2117
lfemur -38.5954 -3.96242 -14.9278
ltibia 27.9534
lfoot -1.99666 -1.68697
ltoes -5.58284
177
root 0.68305 17.2454 -27.7694 8.7854 -2.21289 -1.59115
lowerback 7.64489 3.11645 0.716432
upperback 1.24493 4.21502 0.520922
thorax -2.97724 2.08821 -0.287218
lowerneck -16.4813 -5.53952 -9.48751
upperneck 15.1562 -6.88731 8.76074
head 8.04412 -3.00014 3.64775
rclavicle 5.46658e-015 -3.77691e-015
rhumerus -31.9905 -11.9926 -83.1876
rradius 33.2947
rwrist 5.28385
rhand -14.531 9.22667
rfingers 7.12502
rthumb 11.6171 -20.4313
lclavicle 5.46658e-015 -3.77691e-015
lhumerus -40.8951 21.7225 71.6576
lradius 21.9826
lwrist -16.0111
lhand -11.3694 26.5641
lfingers 7.12502
lthumb 14.6646 56.0255
rfemur 15.1876 4.85513 25.5164
rtibia 14.965
rfoot -2.80122 -6.18806
rtoes -14.0098
lfemur -38.3901 -3.72655 -15.031
ltibia 28.3109
lfoot -1.55954 -1.9789
ltoes -4.26158
